<?xml version="1.0" standalone="no"?>
<!DOCTYPE svg PUBLIC "-//W3C//DTD SVG 20010904//EN"
 "http://www.w3.org/TR/2001/REC-SVG-20010904/DTD/svg10.dtd">
<svg version="1.0" xmlns="http://www.w3.org/2000/svg"
 width="896.000000pt" height="864.000000pt" viewBox="0 0 896.000000 864.000000"
 preserveAspectRatio="xMidYMid meet">
<metadata>
Created by potrace 1.16, written by Peter Selinger 2001-2019
</metadata>
<g transform="translate(0.000000,864.000000) scale(0.100000,-0.100000)"
fill="#000000" stroke="none">
<path d="M1674 8145 c-48 -15 -124 -61 -124 -75 0 -5 -7 -7 -15 -4 -9 4 -15 0
-15 -10 0 -9 -6 -16 -14 -16 -8 0 -24 -13 -35 -29 -29 -40 -69 -51 -184 -52
-53 0 -97 -4 -97 -9 0 -5 -7 -7 -15 -4 -10 4 -15 0 -15 -12 0 -16 -2 -17 -10
-4 -7 11 -14 3 -31 -35 -12 -28 -26 -53 -32 -56 -5 -4 -6 -12 -3 -18 4 -6 0
-14 -8 -17 -18 -7 -21 -31 -6 -36 8 -2 7 -25 -1 -75 -12 -71 -5 -183 11 -183
9 0 60 -122 60 -145 0 -8 11 -31 25 -51 22 -32 25 -47 25 -126 0 -48 4 -96 9
-106 5 -9 21 -42 36 -72 22 -48 115 -165 115 -145 0 3 6 0 14 -8 20 -20 116
-21 165 -1 22 9 41 20 41 24 0 4 12 10 28 13 19 4 31 15 39 37 7 18 17 29 22
25 6 -3 11 -1 11 6 0 7 3 10 6 6 3 -3 13 1 23 9 17 15 141 27 141 14 0 -11 51
-31 61 -25 5 4 9 1 9 -5 0 -6 4 -9 9 -5 5 3 13 -4 16 -16 4 -12 12 -18 21 -15
8 3 14 -1 14 -10 0 -8 4 -13 8 -10 5 3 9 -13 10 -35 2 -23 -2 -39 -8 -39 -7 0
-10 -6 -7 -12 6 -17 -30 -88 -48 -95 -8 -3 -12 -9 -9 -14 3 -5 -6 -20 -20 -33
-14 -13 -26 -30 -26 -39 0 -9 -9 -21 -20 -27 -11 -6 -20 -17 -20 -24 0 -8 -18
-30 -40 -50 -22 -20 -40 -42 -40 -50 0 -8 -4 -18 -10 -21 -5 -3 -17 -21 -26
-40 -9 -19 -20 -35 -25 -35 -5 0 -9 -6 -9 -13 0 -8 -16 -36 -35 -63 -19 -27
-35 -54 -35 -60 0 -16 -51 -118 -62 -125 -6 -4 -7 -12 -4 -18 4 -6 3 -11 -2
-11 -5 0 -9 -14 -9 -31 0 -17 -5 -34 -12 -38 -6 -4 -9 -15 -5 -24 3 -9 2 -17
-4 -17 -21 0 -37 -134 -24 -212 5 -32 7 -60 4 -63 -3 -3 -6 -38 -7 -77 -1 -44
-6 -73 -13 -76 -7 -2 -12 -10 -12 -18 0 -8 -9 -14 -20 -14 -11 0 -20 -4 -20
-8 0 -5 -13 -29 -30 -53 -16 -24 -30 -56 -30 -71 0 -16 -5 -28 -11 -28 -23 0
-41 -74 -37 -147 3 -40 1 -73 -4 -73 -4 0 -8 -7 -8 -15 0 -8 4 -15 9 -15 5 0
11 -9 14 -20 3 -11 1 -20 -4 -20 -15 0 -10 -47 5 -53 8 -3 17 -19 21 -35 7
-35 31 -44 80 -31 49 14 74 55 82 132 4 50 11 71 33 95 15 18 31 32 34 32 12
0 34 -63 37 -105 3 -54 -24 -98 -148 -234 -23 -25 -43 -52 -43 -59 0 -7 -4
-20 -10 -30 -17 -30 -50 -111 -50 -121 0 -6 -8 -15 -18 -20 -15 -8 -21 -30
-30 -100 -9 -78 -9 -95 5 -123 12 -23 13 -33 5 -36 -17 -5 -15 -22 2 -22 8 0
18 -14 21 -32 11 -49 31 -63 91 -62 58 0 84 16 111 67 14 28 13 103 -3 195 -5
26 -3 32 12 33 11 0 14 3 7 6 -19 7 -16 20 7 26 11 3 20 14 20 24 0 19 24 45
53 56 9 3 17 2 17 -4 0 -6 5 -7 10 -4 6 3 16 0 23 -7 14 -16 22 -52 9 -44 -5
3 -10 -19 -11 -51 -1 -59 -18 -113 -36 -113 -13 0 -62 -108 -71 -155 -3 -19
-10 -33 -14 -30 -4 2 -8 -32 -9 -78 -1 -45 -6 -83 -11 -85 -6 -2 -10 -46 -10
-98 0 -75 4 -103 20 -134 11 -22 25 -40 30 -40 6 0 10 -7 10 -15 0 -36 149
-69 169 -37 5 8 12 13 17 13 35 -3 64 36 64 84 0 13 4 27 10 30 12 7 14 72 2
77 -36 15 -85 218 -52 218 7 0 10 7 7 15 -4 8 -2 17 2 20 5 2 16 28 26 56 16
51 63 124 73 115 2 -3 13 -1 24 5 13 7 22 6 33 -4 8 -8 11 -17 8 -21 -3 -3 2
-8 11 -12 11 -4 15 -13 10 -26 -4 -12 0 -24 12 -32 12 -9 14 -15 6 -20 -7 -4
-12 -36 -12 -81 0 -99 -26 -285 -64 -455 -27 -118 -46 -208 -54 -260 l-6 -35
-7 30 -7 30 -1 -32 c0 -18 3 -33 7 -33 4 0 4 -26 0 -57 -5 -32 -13 -125 -19
-207 -9 -143 -9 -152 12 -203 11 -28 20 -55 19 -58 -1 -3 6 -18 15 -32 9 -14
12 -22 6 -19 -15 9 -14 2 3 -39 8 -19 20 -35 25 -35 6 0 27 -25 46 -56 34 -53
39 -84 15 -84 -7 0 -9 -8 -4 -22 4 -13 6 -42 5 -66 0 -23 5 -58 14 -77 8 -20
19 -61 25 -93 21 -117 12 -510 -12 -540 -6 -6 -16 -12 -23 -12 -18 0 -22 -27
-13 -80 12 -65 -6 -144 -36 -160 -13 -7 -29 -9 -35 -6 -6 4 -11 2 -11 -4 0 -6
7 -13 15 -16 26 -10 17 -20 -52 -54 -76 -36 -173 -103 -244 -168 -123 -112
-161 -335 -85 -507 56 -126 205 -246 354 -285 29 -7 40 -15 35 -23 -14 -23
-13 -47 2 -47 8 0 15 -5 15 -11 0 -5 4 -8 9 -5 5 4 21 2 35 -4 14 -5 26 -6 26
-1 0 5 -11 12 -25 15 -14 4 -25 14 -25 23 0 14 10 15 68 10 99 -8 200 7 278
43 37 16 74 30 83 30 23 0 62 29 59 43 -1 7 30 45 70 85 55 56 82 94 117 167
45 91 46 97 38 152 -4 32 -7 65 -6 73 5 38 -64 197 -119 270 -12 17 -23 39
-23 48 0 9 -9 19 -21 22 -42 11 -134 74 -134 92 0 11 -7 18 -20 18 -16 0 -19
-5 -16 -24 4 -21 1 -23 -26 -17 -30 6 -31 8 -36 81 -4 41 -6 165 -5 275 0 110
1 301 1 425 1 124 -3 252 -9 285 -12 76 -46 170 -76 215 -13 19 -23 39 -23 45
0 6 -13 37 -30 68 -16 32 -30 64 -30 71 0 8 -6 26 -14 40 -8 15 -11 37 -8 49
6 21 6 21 12 2 8 -29 48 -103 60 -110 14 -9 12 6 -4 24 -26 31 -50 116 -50
184 0 26 -3 47 -6 47 -9 0 -2 113 9 135 6 11 17 40 25 65 8 25 26 73 41 105
15 33 43 94 61 135 19 41 39 83 44 92 6 10 10 29 10 42 0 14 6 29 14 33 8 4
24 41 35 82 11 40 25 79 31 85 5 7 7 16 3 19 -3 4 -2 7 4 7 6 0 32 64 58 142
26 78 54 148 61 155 7 8 25 50 39 94 13 43 31 89 39 102 8 12 17 33 21 46 4
14 27 55 51 93 24 38 44 71 44 75 0 3 11 21 26 40 14 18 22 33 18 33 -4 0 2
10 14 23 11 12 28 38 36 57 23 54 103 142 190 209 43 34 83 61 89 61 5 0 39
14 74 30 34 17 70 30 79 30 27 0 74 -33 87 -62 6 -16 16 -28 21 -28 5 0 31
-23 59 -51 28 -28 65 -58 83 -65 95 -40 174 11 174 111 0 25 -8 40 -31 59 -17
14 -34 26 -38 26 -12 0 -69 75 -73 95 -3 20 13 25 109 40 36 5 43 3 43 -10 0
-31 43 -164 51 -159 4 2 15 -9 24 -25 18 -36 64 -81 82 -81 7 0 12 -5 10 -12
-4 -20 46 -38 110 -38 55 0 64 3 92 31 40 39 42 89 6 124 -13 14 -29 25 -36
25 -24 0 -109 105 -109 134 0 19 7 25 38 30 52 8 122 8 122 -2 0 -4 30 -15 68
-25 37 -10 114 -33 172 -52 109 -36 175 -51 199 -46 8 1 17 -3 22 -10 4 -8 12
-10 16 -5 4 5 2 11 -4 13 -19 7 -17 63 2 63 9 0 68 18 133 39 165 56 242 73
357 80 l100 7 -73 71 c-40 39 -97 83 -125 99 -47 26 -61 29 -147 29 -73 0
-110 -5 -161 -23 -36 -12 -73 -20 -82 -16 -26 9 -20 34 7 34 13 0 44 9 68 20
59 26 181 28 268 5 168 -44 299 -171 300 -291 0 -83 -44 -156 -101 -168 -35
-7 -69 -39 -69 -66 0 -26 34 -60 61 -60 12 0 50 14 85 31 49 23 71 41 91 72
42 67 62 134 73 242 10 106 28 165 63 203 37 40 54 45 92 26 70 -33 121 -170
106 -280 -12 -79 -17 -88 -90 -157 -67 -62 -78 -98 -41 -132 67 -61 246 93
319 275 13 30 31 74 42 98 34 75 22 162 -33 255 -17 29 -56 99 -86 157 -66
126 -141 238 -191 283 -20 18 -100 79 -178 136 -79 56 -145 106 -148 111 -3 5
-38 30 -77 56 -153 102 -319 122 -420 52 -15 -11 -49 -46 -74 -79 -61 -79 -67
-121 -28 -183 15 -24 32 -42 36 -40 4 3 8 22 8 42 0 141 101 220 269 210 116
-7 308 -114 364 -202 14 -23 39 -54 56 -70 17 -17 31 -35 31 -40 0 -6 16 -34
36 -61 54 -77 121 -206 127 -247 7 -43 6 -43 -34 -22 -17 8 -74 29 -127 46
-91 30 -106 32 -242 32 l-145 -1 -115 -42 c-144 -54 -164 -58 -195 -37 -21 14
-25 24 -25 67 0 53 -34 188 -76 297 -22 57 -25 79 -22 147 3 44 10 89 16 100
18 32 59 137 66 172 5 23 1 43 -14 73 -21 40 -21 50 -14 264 l7 223 -27 7
c-15 4 -32 4 -38 0 -8 -5 -9 -111 -5 -378 l6 -371 -20 25 c-30 39 -57 93 -69
142 -10 40 -9 50 10 88 21 40 21 49 14 265 l-7 223 32 7 c29 6 31 10 31 47 0
39 -1 40 -19 24 -10 -9 -25 -14 -34 -10 -22 8 -89 99 -133 181 -53 97 -82 130
-136 153 -27 11 -48 24 -48 29 0 4 14 39 31 77 39 86 93 151 187 226 61 48 80
58 113 58 l39 0 0 -343 0 -344 23 -22 c14 -13 30 -19 40 -15 22 8 89 99 133
181 53 97 82 130 136 153 27 11 48 24 48 29 0 4 -14 39 -31 77 -39 86 -93 151
-187 226 -64 51 -79 58 -118 58 -37 0 -44 3 -44 20 0 17 7 20 43 21 103 3 123
-7 223 -106 l74 -72 29 36 c16 20 54 49 86 66 65 34 73 42 54 60 -15 14 -153
72 -226 95 -56 17 -125 8 -173 -24 -45 -30 -60 -32 -60 -11 0 9 -9 15 -25 15
-20 0 -25 5 -25 26 0 21 -3 24 -20 19 -12 -4 -27 -1 -35 5 -8 7 -22 10 -30 6
-9 -3 -15 0 -15 9 0 7 -12 16 -27 18 -47 9 -163 5 -163 -5 0 -5 -9 -6 -20 -3
-11 4 -20 2 -20 -4 0 -6 -6 -11 -14 -11 -8 0 -22 -7 -30 -16 -9 -8 -16 -13
-16 -10 0 5 -113 -44 -155 -66 -28 -16 -75 -20 -75 -7 0 7 -9 9 -22 6 -12 -4
-28 -1 -35 4 -7 7 -35 9 -70 5 -32 -3 -75 -6 -95 -6 -21 0 -38 -4 -38 -10 0
-6 -10 -8 -24 -4 -14 3 -29 0 -38 -10 -9 -8 -27 -18 -42 -22 -14 -3 -26 -10
-26 -15 0 -5 -12 -14 -26 -19 -14 -6 -51 -31 -80 -56 -46 -40 -61 -47 -99 -48
-25 0 -45 3 -45 7 0 10 -124 -3 -128 -13 -2 -4 -12 -6 -22 -3 -14 4 -20 0 -20
-11 0 -9 -4 -16 -10 -16 -5 0 -10 5 -10 10 0 6 -4 10 -10 10 -5 0 -10 -6 -10
-13 0 -7 -25 -24 -55 -36 -38 -16 -60 -32 -71 -52 -8 -16 -18 -27 -23 -25 -4
3 -19 -8 -32 -25 -13 -16 -46 -53 -72 -82 -48 -51 -77 -103 -77 -137 0 -13
-12 -19 -50 -24 -34 -5 -50 -11 -50 -21 0 -8 -4 -15 -9 -15 -4 0 -29 -18 -54
-40 -31 -28 -51 -38 -64 -34 -55 18 -209 92 -225 107 -7 7 -34 25 -60 40 -64
37 -131 114 -124 143 4 16 1 24 -13 29 -26 8 -31 32 -37 165 -3 63 -10 117
-15 118 -5 2 -9 15 -9 28 0 31 -36 103 -55 111 -8 3 -15 14 -15 25 0 10 -4 16
-10 13 -5 -3 -10 -1 -10 4 0 6 -7 11 -15 11 -8 0 -15 4 -15 9 0 9 -106 42
-131 40 -8 -1 -32 -7 -55 -14z m113 -60 c58 -17 114 -71 131 -126 6 -19 20
-97 31 -174 24 -165 45 -214 131 -308 45 -48 81 -76 138 -105 42 -21 106 -55
142 -74 36 -20 83 -41 105 -47 l40 -11 55 59 c62 65 108 97 96 65 -4 -11 -12
-44 -18 -74 -10 -50 -7 -69 31 -221 22 -92 41 -182 41 -200 0 -19 7 -45 15
-59 7 -14 21 -41 30 -59 8 -19 27 -50 41 -68 13 -18 60 -104 103 -191 98 -197
131 -231 303 -314 56 -27 67 -49 41 -85 -46 -64 -53 -81 -53 -119 0 -28 7 -50
21 -65 l20 -24 -6 37 c-3 22 0 50 8 70 19 46 137 143 137 114 0 -3 -11 -31
-24 -63 -13 -32 -36 -92 -51 -133 -15 -41 -48 -109 -73 -150 -24 -41 -51 -92
-58 -114 -20 -54 -17 -136 5 -187 10 -24 22 -65 25 -91 7 -44 5 -47 -27 -72
-19 -14 -40 -26 -48 -26 -23 -1 -173 -101 -243 -163 -76 -67 -174 -185 -211
-254 -14 -26 -41 -73 -60 -103 -19 -30 -48 -91 -66 -135 -17 -44 -74 -167
-125 -273 -52 -105 -94 -196 -94 -200 0 -24 -85 -262 -128 -357 -94 -210 -157
-430 -169 -590 -7 -105 14 -189 82 -325 29 -58 66 -134 82 -170 l28 -65 -1
-225 c0 -124 -2 -367 -5 -541 -5 -353 -7 -341 65 -360 64 -17 138 -51 129 -59
-12 -11 -118 -37 -188 -45 -81 -10 -103 -20 -148 -63 -41 -40 -49 -81 -21
-120 19 -28 34 -28 34 -1 0 32 37 77 81 99 30 16 158 50 185 50 13 0 -4 -65
-72 -268 -88 -262 -91 -269 -147 -327 -85 -87 -186 -116 -265 -76 -127 66
-148 218 -44 333 32 35 20 54 -19 31 -63 -37 -123 -131 -137 -214 l-7 -44 -28
37 c-64 83 -87 260 -48 365 24 67 51 110 93 150 60 57 178 131 255 159 73 27
77 29 100 79 13 29 30 90 38 136 9 46 20 109 26 139 26 140 39 289 39 468 0
254 -8 289 -117 503 l-85 165 -6 93 c-9 166 55 578 129 834 31 105 48 259 39
352 -9 92 -21 130 -56 166 l-25 26 41 17 c22 9 55 16 73 16 31 1 31 1 12 16
-27 21 -118 13 -172 -14 -49 -25 -124 -107 -152 -165 -25 -52 -61 -188 -61
-233 0 -18 9 -61 20 -96 28 -90 26 -132 -6 -157 -42 -33 -89 -28 -131 14 l-36
36 7 147 c10 202 39 314 103 399 32 41 63 124 63 166 0 43 -31 91 -68 106 -68
28 -192 -48 -207 -128 -4 -19 -4 -75 0 -125 5 -81 4 -95 -14 -123 -16 -26 -28
-33 -51 -33 -27 0 -34 6 -50 43 -23 51 -26 144 -5 202 8 22 15 48 15 58 0 28
74 165 122 226 24 29 67 81 96 115 30 35 55 75 58 94 10 51 -5 138 -29 174
-19 28 -30 34 -66 36 -30 2 -49 -2 -62 -14 -24 -22 -49 -104 -49 -161 0 -53
-14 -83 -39 -83 -32 0 -46 54 -46 180 1 127 17 181 75 247 17 18 30 38 30 43
0 4 11 21 24 37 39 46 54 130 54 298 -1 185 14 248 83 362 27 45 54 94 59 109
14 35 94 154 140 207 54 62 179 274 192 325 l11 45 49 -53 c34 -37 52 -50 59
-43 8 8 -7 30 -48 74 -33 35 -76 83 -97 105 -20 23 -62 59 -92 80 -53 37 -60
39 -125 37 -88 -3 -149 -29 -214 -92 -85 -83 -133 -97 -195 -60 -32 19 -69 56
-70 69 0 3 31 4 68 2 81 -5 114 8 182 73 65 61 136 100 207 114 53 10 67 9
100 -4 53 -23 125 -69 223 -146 91 -71 148 -105 158 -94 19 19 -270 245 -344
270 -27 9 -74 19 -104 22 -48 5 -64 1 -115 -25 -33 -16 -90 -53 -127 -81 -87
-65 -97 -70 -163 -82 -64 -12 -96 1 -132 50 -18 24 -23 44 -23 95 0 88 -23
174 -78 286 -46 93 -47 96 -50 205 -4 185 27 222 195 231 133 7 133 7 189 60
87 83 154 96 209 41 42 -42 55 -103 55 -261 0 -119 1 -125 31 -182 18 -32 52
-87 77 -122 24 -35 42 -65 40 -68 -10 -10 -151 56 -192 90 -24 19 -58 57 -75
83 -35 53 -160 169 -215 198 -31 17 -39 17 -75 5 -22 -7 -50 -23 -61 -36 -27
-27 -44 -95 -28 -109 7 -7 12 -6 15 3 14 38 94 87 127 78 30 -7 87 -64 136
-134 22 -31 53 -76 70 -100 16 -23 30 -47 30 -52 0 -20 -45 -9 -132 31 -95 44
-122 45 -158 9 -18 -18 -28 -60 -15 -60 3 0 14 9 25 20 22 22 64 26 96 7 30
-17 78 -57 73 -60 -2 -2 -15 -9 -29 -15 -74 -38 -92 -50 -83 -55 22 -14 71 -9
133 12 51 18 88 24 175 25 108 1 111 0 187 -37 42 -20 105 -62 140 -92 171
-148 318 -249 335 -231 8 9 3 14 -146 128 -94 73 -209 196 -235 253 -30 64
-117 198 -168 259 -26 31 -27 38 -31 172 -3 116 -8 148 -26 189 -27 62 -77
115 -108 115 -29 0 -30 14 0 28 31 15 56 14 114 -3z m2602 -38 c46 -31 61 -34
61 -12 0 18 37 20 43 3 11 -36 -4 -48 -63 -47 -74 1 -104 -15 -196 -106 l-74
-72 -29 36 c-16 20 -54 49 -86 66 -31 16 -59 33 -62 37 -10 17 18 35 114 72
54 21 107 42 118 47 39 17 130 5 174 -24z m-439 -166 c68 -27 118 -54 143 -77
l38 -35 -26 -46 c-15 -24 -30 -66 -34 -91 -6 -45 -8 -47 -36 -44 -71 6 -150
31 -250 78 -38 18 -88 39 -110 47 -22 8 -69 26 -105 40 -36 14 -87 34 -113 43
-26 9 -46 22 -44 28 4 15 123 74 183 91 32 9 85 13 149 11 90 -2 110 -7 205
-45z m-685 -213 c169 -70 216 -98 297 -181 121 -124 153 -192 160 -340 3 -66
1 -76 -12 -71 -8 3 -32 8 -52 11 -30 4 -52 21 -119 90 -57 59 -98 93 -136 110
-52 24 -62 25 -191 21 -131 -5 -142 -7 -252 -47 -149 -55 -179 -70 -213 -105
-15 -16 -31 -25 -35 -22 -4 4 -7 40 -6 80 0 75 37 202 74 256 10 14 29 48 43
75 25 50 101 131 148 155 73 40 136 33 294 -32z m932 -234 c48 -28 112 -107
113 -139 0 -12 4 -25 9 -30 5 -6 19 -46 30 -89 17 -66 21 -110 21 -257 0 -108
-4 -180 -10 -184 -5 -3 -10 -19 -10 -36 l0 -29 -60 32 -61 31 -57 -18 c-117
-36 -235 -107 -329 -198 -30 -29 -44 -36 -47 -26 -11 31 -36 205 -36 246 0 47
24 172 45 238 18 56 41 140 55 205 30 133 99 242 175 277 41 18 108 9 162 -23z
m-814 -205 c41 -16 72 -39 124 -92 56 -59 81 -77 141 -101 89 -36 93 -48 61
-154 -20 -66 -23 -101 -24 -248 -2 -170 -6 -200 -27 -188 -6 4 -8 2 -5 -3 4
-6 -10 -29 -31 -52 -31 -36 -53 -48 -137 -77 -84 -28 -114 -34 -188 -34 -84 0
-93 2 -169 40 -123 62 -133 73 -194 197 -31 62 -53 117 -50 122 4 5 2 11 -3
13 -12 4 -91 238 -91 270 0 116 165 250 373 303 116 29 152 30 220 4z m888
-691 c52 -17 84 -44 135 -109 63 -82 68 -121 23 -191 l-34 -53 -6 71 c-11 115
-46 161 -147 190 -88 26 -171 16 -272 -33 -106 -50 -180 -105 -213 -157 -14
-23 -39 -54 -56 -70 -17 -17 -31 -35 -31 -40 0 -6 -16 -34 -36 -61 -54 -77
-121 -206 -127 -247 -7 -43 -6 -43 34 -22 17 8 74 29 127 46 91 30 106 32 242
32 l145 -1 115 -42 c144 -54 164 -58 195 -37 21 14 25 24 25 68 0 80 69 304
100 323 7 4 10 -90 10 -279 l0 -286 -29 0 c-16 0 -49 9 -73 20 -59 26 -181 28
-268 5 -168 -44 -299 -171 -300 -291 0 -83 44 -156 101 -168 35 -7 69 -39 69
-66 0 -27 -35 -60 -62 -60 -46 1 -132 54 -175 107 -51 64 -62 98 -73 233 -9
109 -27 169 -63 208 -37 40 -54 45 -92 26 -70 -33 -121 -170 -106 -280 12 -79
17 -88 90 -157 65 -61 78 -98 45 -131 -66 -66 -248 88 -324 274 -12 30 -31 76
-41 102 -33 81 -26 129 38 253 133 261 206 378 272 438 20 18 100 79 178 136
79 56 145 106 148 111 14 23 156 107 214 126 73 25 170 30 222 12z m22 -194
c30 -38 41 -78 20 -70 -52 20 -114 28 -196 24 -81 -4 -100 -9 -159 -40 -36
-20 -85 -50 -107 -68 -23 -19 -43 -31 -46 -28 -3 2 6 27 20 54 51 103 152 164
285 174 93 7 153 -8 183 -46z m-39 -114 c54 -21 95 -61 110 -106 9 -31 -21
-62 -71 -73 -44 -9 -54 -3 -28 19 34 28 5 62 -67 81 -59 16 -118 4 -226 -47
-84 -39 -194 -83 -229 -91 -43 -10 -23 14 55 65 42 28 110 73 150 101 40 28
87 55 105 60 56 16 143 12 201 -9z m-71 -182 c3 -22 10 -45 16 -51 6 -6 35 -9
66 -8 l55 2 0 -50 c0 -63 -13 -65 -96 -20 -43 24 -78 34 -143 42 -99 11 -216
10 -240 -2 -9 -5 -36 -12 -60 -16 -41 -7 -43 -6 -29 8 41 42 260 127 326 127
26 0 53 4 61 9 24 15 38 2 44 -41z m210 -427 c32 -11 68 -19 80 -18 22 2 22
-1 25 -136 2 -119 0 -138 -14 -144 -9 -3 -57 8 -107 25 -185 63 -326 95 -410
93 -75 -1 -78 -1 -67 18 25 48 173 160 240 182 42 14 190 2 253 -20z m-810
-23 c29 -39 57 -109 57 -141 0 -21 -7 -24 -70 -35 -106 -18 -103 -19 -98 31 5
46 63 177 78 177 5 0 20 -15 33 -32z m-1021 -4308 c89 -175 48 -374 -104 -502
-105 -89 -230 -138 -343 -137 -35 0 -38 2 -20 12 10 7 53 46 95 87 72 72 77
80 112 180 20 58 46 130 57 160 11 30 34 102 51 160 17 58 36 117 42 133 l11
28 31 -25 c17 -13 48 -56 68 -96z"/>
<path d="M2580 7140 c0 -11 -65 -166 -122 -290 -19 -42 -52 -99 -72 -128 -67
-93 -247 -232 -301 -232 -20 0 -19 -16 1 -24 42 -16 157 2 239 39 28 12 90 50
138 83 97 66 121 99 137 183 12 60 15 313 5 352 -7 26 -25 38 -25 17z"/>
<path d="M2695 6520 c-11 -14 -42 -46 -70 -72 -40 -40 -56 -48 -86 -48 -20 0
-42 7 -49 15 -13 15 -50 21 -50 7 0 -20 53 -82 75 -88 41 -10 91 14 143 70 51
53 67 87 60 123 -3 16 -6 15 -23 -7z"/>
<path d="M2157 6178 c-26 -56 -20 -85 26 -135 70 -77 258 14 257 124 0 14 -6
10 -25 -14 -34 -43 -106 -83 -149 -83 -44 0 -83 46 -88 105 l-4 40 -17 -37z"/>
<path d="M2937 6133 c-2 -5 -7 -20 -11 -35 -3 -14 -18 -40 -32 -57 -23 -27
-32 -31 -77 -31 -29 0 -68 4 -87 10 -46 13 -56 -1 -23 -32 35 -32 83 -48 144
-48 67 0 109 37 116 102 3 26 3 58 -1 72 -6 25 -20 34 -29 19z"/>
<path d="M1780 5763 c1 -63 40 -143 80 -164 83 -44 174 -5 215 93 16 41 20 94
6 102 -5 3 -22 -21 -40 -53 -38 -71 -81 -98 -139 -84 -31 7 -41 17 -72 76 -19
37 -38 67 -42 67 -5 0 -8 -17 -8 -37z"/>
<path d="M2659 5700 c-52 -85 -115 -101 -204 -52 -38 20 -52 35 -60 60 -12 42
-25 41 -25 -2 0 -68 77 -138 168 -152 38 -6 46 -3 86 29 44 37 69 77 81 135
10 48 -10 40 -46 -18z"/>
<path d="M2886 5471 l7 -68 -41 -41 c-26 -26 -57 -45 -84 -53 -42 -11 -116 -8
-150 6 -11 4 -18 3 -18 -4 0 -20 91 -55 143 -54 120 2 183 47 194 141 4 37 0
60 -15 95 -30 69 -43 60 -36 -22z"/>
<path d="M1733 5369 c-23 -29 -26 -85 -5 -132 29 -64 125 -147 172 -147 29 0
99 53 110 84 22 63 9 72 -38 26 -43 -41 -78 -39 -130 6 -57 48 -85 91 -92 138
-4 31 -7 36 -17 25z"/>
<path d="M2405 5283 c-11 -46 -68 -134 -97 -149 -40 -21 -82 -17 -145 11 -30
14 -58 23 -62 20 -12 -12 86 -94 126 -104 105 -29 213 73 213 202 0 53 -23 67
-35 20z"/>
<path d="M2455 4923 c-11 -81 -34 -136 -72 -175 -50 -51 -88 -52 -143 -2 -22
20 -40 42 -40 49 0 7 -8 23 -19 36 l-18 23 -7 -22 c-10 -31 21 -130 50 -159
39 -39 90 -56 130 -43 86 29 174 218 148 318 -10 36 -22 25 -29 -25z"/>
<path d="M7201 8085 c-54 -17 -106 -66 -126 -119 -8 -23 -24 -104 -35 -181
-23 -165 -44 -214 -130 -308 -45 -48 -81 -76 -138 -105 -42 -21 -106 -55 -142
-74 -36 -20 -83 -41 -105 -47 l-40 -11 -55 59 c-62 65 -108 97 -96 65 4 -11
12 -44 18 -74 10 -50 7 -69 -31 -221 -22 -92 -41 -182 -41 -200 0 -19 -7 -45
-15 -59 -7 -14 -21 -41 -30 -59 -8 -19 -27 -50 -41 -68 -13 -18 -60 -104 -103
-191 -98 -197 -131 -231 -303 -314 -60 -29 -67 -49 -34 -96 50 -74 59 -134 25
-173 l-20 -24 6 37 c8 50 -20 103 -78 151 -40 33 -67 46 -67 33 0 -3 11 -31
24 -63 13 -32 36 -92 51 -133 15 -41 48 -109 73 -150 24 -41 51 -92 58 -114
19 -54 17 -127 -5 -183 -10 -26 -21 -69 -25 -95 -7 -44 -5 -47 27 -72 19 -14
40 -26 48 -26 23 -1 173 -101 243 -163 76 -67 174 -185 211 -254 14 -26 41
-73 60 -103 19 -30 48 -91 66 -135 17 -44 74 -167 125 -273 52 -105 94 -196
94 -200 0 -24 85 -262 128 -357 94 -210 157 -430 169 -590 8 -110 -14 -189
-98 -355 -106 -211 -103 -195 -93 -605 10 -435 9 -677 -5 -703 -7 -13 -36 -28
-78 -41 -118 -35 -172 -80 -266 -218 -46 -69 -57 -152 -34 -261 27 -125 81
-188 243 -286 l62 -38 51 37 c58 42 95 98 121 184 48 154 130 294 196 338 38
24 40 8 5 -32 -55 -64 -100 -176 -131 -329 -13 -62 -6 -181 11 -191 14 -9 11
-35 -5 -35 -7 0 -34 9 -60 20 -39 18 -52 19 -86 10 -22 -6 -40 -15 -40 -19 0
-12 77 -28 165 -36 138 -12 266 44 389 170 38 38 78 90 89 115 26 57 35 192
17 258 -16 59 -47 122 -60 122 -15 0 -49 -59 -62 -107 -17 -60 -38 -56 -38 6
0 75 -21 95 -122 114 -181 35 -250 32 -379 -14 -171 -62 -249 -274 -131 -354
l37 -25 -29 0 c-16 0 -45 12 -63 26 -104 79 -96 197 20 313 127 127 327 162
584 101 100 -24 155 -22 132 6 -27 33 -188 131 -253 153 -66 23 -69 26 -92 76
-23 49 -32 91 -69 305 -29 165 -35 243 -35 436 0 256 8 291 117 505 l85 165 6
93 c9 166 -55 578 -129 834 -31 105 -48 259 -39 352 9 92 21 130 56 166 l25
26 -41 17 c-22 9 -55 16 -73 16 -31 1 -31 1 -12 16 27 21 118 13 172 -14 49
-25 124 -107 152 -165 25 -52 61 -188 61 -233 0 -18 -9 -61 -20 -96 -28 -90
-26 -132 6 -157 42 -33 89 -28 131 14 l36 36 -7 147 c-10 202 -39 314 -103
399 -32 41 -63 124 -63 166 0 43 31 91 68 106 68 28 192 -48 207 -128 4 -19 4
-75 0 -125 -5 -81 -4 -95 14 -123 16 -26 28 -33 51 -33 27 0 34 6 50 43 23 51
26 144 5 202 -8 22 -15 48 -15 58 0 28 -74 165 -122 226 -24 29 -67 81 -96
115 -30 35 -55 75 -58 94 -10 51 5 138 29 174 19 28 30 34 66 36 30 2 49 -2
62 -14 24 -22 49 -104 49 -161 0 -53 14 -83 39 -83 32 0 46 54 46 180 -1 127
-17 181 -75 247 -17 18 -30 38 -30 43 0 4 -11 21 -24 37 -39 46 -54 130 -54
298 1 185 -14 248 -83 362 -27 45 -54 94 -59 109 -14 35 -94 154 -140 207 -54
62 -179 274 -192 325 l-11 45 -49 -53 c-34 -37 -52 -50 -59 -43 -8 8 7 30 48
74 33 35 76 83 97 105 20 23 62 59 92 80 53 37 60 39 125 37 88 -3 149 -29
214 -92 85 -83 133 -97 195 -60 32 19 69 56 70 69 0 3 -31 4 -68 2 -81 -5
-114 8 -182 73 -65 61 -136 100 -207 114 -53 10 -67 9 -100 -4 -53 -23 -125
-69 -223 -146 -91 -71 -148 -105 -158 -94 -19 19 270 245 344 270 27 9 74 19
104 22 48 5 64 1 115 -25 33 -16 90 -53 127 -81 87 -65 97 -70 163 -82 64 -12
96 1 133 50 17 24 22 44 22 95 0 88 23 174 78 286 46 93 47 96 50 205 4 185
-27 222 -195 231 -133 7 -133 7 -189 60 -87 83 -154 96 -209 41 -42 -42 -55
-103 -55 -261 0 -119 -1 -125 -31 -182 -18 -32 -52 -87 -77 -122 -24 -35 -42
-65 -40 -68 10 -10 151 56 192 90 24 19 58 57 75 83 35 53 160 169 215 198 31
17 39 17 75 5 22 -7 50 -23 61 -36 27 -27 44 -95 28 -109 -7 -7 -12 -6 -15 3
-14 38 -94 87 -127 78 -30 -7 -87 -64 -136 -134 -22 -31 -53 -76 -70 -100 -16
-23 -30 -47 -30 -52 0 -20 44 -9 132 31 87 39 92 40 127 26 22 -9 40 -24 45
-41 13 -35 2 -42 -23 -17 -23 23 -65 27 -97 8 -30 -17 -78 -57 -73 -60 2 -2
15 -9 29 -15 74 -38 92 -50 83 -55 -22 -14 -71 -9 -133 12 -51 18 -88 24 -175
25 -108 1 -111 0 -187 -37 -42 -20 -105 -62 -140 -92 -171 -148 -318 -249
-335 -231 -8 9 -3 14 146 128 94 73 209 196 235 253 30 64 117 198 168 259 26
31 27 38 31 172 3 116 8 148 26 189 27 62 77 115 108 115 30 0 29 14 -2 28
-33 15 -59 14 -114 -3z m-791 -945 c0 -11 65 -166 122 -290 19 -42 52 -99 72
-128 67 -93 247 -232 301 -232 20 0 19 -16 -1 -24 -42 -16 -157 2 -239 39 -27
12 -90 50 -138 83 -97 66 -121 99 -137 183 -12 60 -15 313 -5 352 7 26 25 38
25 17z m-99 -636 c7 -14 34 -43 60 -65 51 -42 105 -53 129 -24 12 15 50 21 50
9 0 -16 -44 -75 -62 -85 -35 -19 -87 -1 -140 49 -55 51 -78 88 -78 126 0 31
21 26 41 -10z m529 -340 c31 -92 -59 -177 -152 -145 -78 28 -138 92 -138 148
0 14 6 10 25 -14 34 -43 106 -83 149 -83 46 0 86 49 86 104 0 44 14 40 30 -10z
m-775 -68 c22 -64 51 -86 109 -86 28 0 67 4 86 10 46 13 56 -1 23 -32 -35 -32
-83 -48 -144 -48 -67 0 -109 37 -116 102 -6 54 3 101 18 96 6 -2 17 -21 24
-42z m890 -367 c30 -58 79 -85 133 -72 31 7 41 17 72 76 19 37 38 67 43 67 15
0 6 -77 -16 -129 -16 -40 -31 -59 -57 -72 -83 -44 -174 -5 -215 93 -16 39 -20
90 -8 101 8 8 15 -2 48 -64z m-624 -29 c52 -85 115 -101 204 -52 38 20 52 35
60 60 12 42 25 41 25 -2 0 -68 -77 -138 -168 -152 -38 -6 -46 -3 -86 29 -44
37 -69 77 -81 135 -10 48 10 40 46 -18z m-227 -229 l-7 -68 41 -41 c26 -26 57
-45 84 -53 42 -11 116 -8 151 6 10 4 17 3 17 -4 0 -20 -91 -55 -143 -54 -120
2 -183 47 -194 141 -4 37 0 60 15 95 30 69 43 60 36 -22z m1171 -151 c8 -50
-20 -115 -69 -161 -42 -39 -93 -69 -116 -69 -29 0 -99 53 -110 84 -22 63 -9
72 38 26 45 -42 78 -40 135 10 58 51 87 98 87 140 0 27 2 30 14 21 8 -7 17
-30 21 -51z m-690 -37 c11 -46 68 -134 97 -149 40 -21 82 -17 145 11 30 14 58
23 62 20 12 -12 -86 -94 -126 -104 -105 -29 -213 73 -213 202 0 53 23 67 35
20z m-50 -360 c11 -81 34 -136 72 -175 50 -51 88 -52 143 -2 22 20 40 42 40
49 0 7 8 23 19 36 l18 23 7 -22 c10 -31 -21 -130 -50 -159 -39 -39 -90 -56
-130 -43 -86 29 -174 218 -148 318 10 36 22 25 29 -25z"/>
<path d="M5104 7910 c-95 -25 -151 -53 -202 -101 l-43 -41 26 -45 c15 -25 30
-66 34 -91 6 -45 8 -47 36 -44 71 6 150 31 250 78 39 18 88 39 110 47 22 8 69
26 105 40 36 14 87 34 113 43 26 9 46 22 45 28 -5 17 -146 84 -201 96 -72 15
-194 11 -273 -10z"/>
<path d="M5875 7723 c-38 -6 -254 -96 -323 -134 -59 -33 -179 -151 -223 -218
-37 -58 -56 -128 -61 -224 -3 -66 -1 -76 12 -71 8 3 32 8 52 11 30 4 52 21
119 90 57 59 98 93 136 110 52 24 62 25 191 21 131 -5 142 -7 252 -47 149 -55
179 -70 213 -105 15 -16 31 -25 35 -22 4 4 7 40 6 80 0 75 -37 202 -74 256
-10 14 -29 48 -43 75 -26 53 -104 133 -153 158 -34 17 -97 26 -139 20z"/>
<path d="M4839 7456 c-20 -7 -50 -23 -68 -35 -37 -27 -91 -102 -91 -128 0 -11
-4 -23 -9 -28 -5 -6 -19 -46 -30 -89 -17 -66 -21 -110 -21 -257 0 -108 4 -180
10 -184 6 -3 10 -19 10 -36 l0 -29 60 32 61 31 57 -18 c117 -36 235 -107 329
-198 30 -29 44 -36 47 -26 11 31 36 205 36 246 0 47 -24 172 -45 238 -18 56
-41 140 -55 205 -22 98 -50 158 -98 211 -68 76 -117 92 -193 65z"/>
<path d="M4733 6229 c-51 -20 -93 -61 -107 -105 -9 -31 21 -62 72 -73 43 -9
53 -3 27 19 -34 28 -5 62 67 81 59 16 118 4 226 -47 84 -39 194 -83 230 -91
42 -10 22 14 -55 65 -43 28 -111 73 -151 101 -40 28 -89 55 -110 60 -57 16
-142 12 -199 -10z"/>
<path d="M5407 5598 c-29 -39 -57 -109 -57 -141 0 -21 7 -24 70 -35 106 -18
103 -19 98 31 -5 46 -63 177 -78 177 -5 0 -20 -15 -33 -32z"/>
<path d="M7050 1592 c0 -5 30 -24 68 -41 61 -30 89 -49 221 -148 24 -18 50
-33 58 -33 7 0 13 -8 13 -18 0 -10 12 -43 26 -73 15 -30 35 -83 44 -118 17
-58 17 -73 5 -140 -7 -42 -23 -101 -34 -131 -48 -128 -199 -254 -358 -301 -31
-9 -40 -15 -33 -24 5 -7 7 -15 3 -18 -15 -16 24 -5 86 23 122 56 156 75 169
92 7 10 17 18 23 18 5 0 23 13 41 30 17 16 36 30 43 30 6 0 18 12 26 28 8 15
17 29 20 32 22 16 71 214 73 290 1 31 -82 230 -106 253 -10 10 -18 23 -18 30
0 14 -121 127 -151 141 -11 5 -19 13 -19 17 0 12 -57 37 -123 54 -67 17 -77
18 -77 7z"/>
<path d="M6407 1443 c-104 -167 -126 -210 -133 -263 -8 -66 -6 -112 6 -144 5
-13 12 -55 15 -93 4 -37 14 -81 23 -98 16 -29 155 -174 196 -205 18 -14 19
-13 13 2 -3 10 -2 20 4 24 5 3 -10 23 -34 44 -60 53 -118 131 -162 218 -35 70
-36 76 -29 135 5 34 8 69 7 77 -6 51 56 189 124 279 25 33 30 47 21 53 -21 13
-27 10 -51 -29z"/>
</g>
</svg>
